# xmcd
#
# Track frame offsets:
# 150
# 3472
# 21141
# 32625
# 50170
# 67392
# 85608
# 104994
# 120045
# 126879
# 141719
# 143738
# 159884
# 178303
# 193478
# 204783
# 212704
# 216218
# 229616
# 244312
# 261059
# 273432
# 286279
# 304493
# 322263
#
# Disc length: 4550 seconds
#
#
# Revision: 0
# Processed by: cddbd v1.5.2PL0 Copyright (c) Steve Scherf et al.
# Submitted via: FreeRIP 2.951 
#
DISCID=8b11c419
DTITLE=D-Block - D-Block R&B
DYEAR=1900
DGENRE=Hip-Hop/R&B
TTITLE0=Intro Surprise Guest #1
TTITLE1=Usher feat. Jadakiss - I Want You Back
TTITLE2=Mario Winans feat. Jae Hood - I Don't Wanna Know
TTITLE3=Rashad feat. Jadakiss and Sheek Louch - Sweet Msiery
TTITLE4=Anthony Hamilton feat. Sheek Louch - Where I'm From
TTITLE5=Akon feat. Styles P. - Locked Up
TTITLE6=Erykah badu feat. Sheek Louch and Jae Hood - Danger
TTITLE7=Jahiem feat. Jadakiss - Diamond In The Rough
TTITLE8=Jae Hood - Crush On You
TTITLE9=Styles P. feat. Jae Hood - Holiday and Hood freestyle
TTITLE10=Interlude Surprise Guest #2
TTITLE11=Tamar feat. Styles P. and Sheek Louch - Leavin' You
TTITLE12=Sheek Louch feat. Styles P. - I Love You
TTITLE13=Jadakiss feat. Sheek Louch - Comin' Thru
TTITLE14=Nita feat. Jadakiss - Brand New Love
TTITLE15=Jae Hood - I Just Wanna Thug You
TTITLE16=Interlude Surprise Guest #3
TTITLE17=Hersanity feat. The Lox - Exclusive
TTITLE18=Sheek Louch feat. Lil' Mo - Superstar
TTITLE19=Robin Thicke feat. Jadakiss - Can't Leave You Alone
TTITLE20=Jahiem - feat. Styles P., Sheek Louch, and Jae Hood - Many men
TTITLE21=Team Arliss - If We Want It
TTITLE22=Mashonda feat. Jadakiss - Can't Leave The Block Alone
TTITLE23=D-Block - Freestyle
TTITLE24=Bling Dynasty feat. Jadakiss and Jae Hood - Fallin For You
EXTD=
EXTT0=
EXTT1=
EXTT2=
EXTT3=
EXTT4=
EXTT5=
EXTT6=
EXTT7=
EXTT8=
EXTT9=
EXTT10=
EXTT11=
EXTT12=
EXTT13=
EXTT14=
EXTT15=
EXTT16=
EXTT17=
EXTT18=
EXTT19=
EXTT20=
EXTT21=
EXTT22=
EXTT23=
EXTT24=
PLAYORDER=
